{
	"asset":{
		"generator":"Khronos glTF Blender I/O v4.0.44",
		"version":"2.0"
	},
	"scene":0,
	"scenes":[
		{
			"name":"Scene",
			"nodes":[
				6
			]
		}
	],
	"nodes":[
		{
			"mesh":0,
			"name":"Earth_Material #50_0"
		},
		{
			"children":[
				0
			],
			"name":"Earth",
			"rotation":[
				-0.70710688829422,
				0,
				0,
				0.7071066498756409
			]
		},
		{
			"name":"EarthClouds",
			"rotation":[
				-0.6963643431663513,
				-0.12278781086206436,
				-0.12278784066438675,
				0.6963642239570618
			],
			"scale":[
				1.0099999904632568,
				1.010000228881836,
				1.0100001096725464
			]
		},
		{
			"children":[
				1,
				2
			],
			"name":"RootNode"
		},
		{
			"children":[
				3
			],
			"name":"Object_2"
		},
		{
			"children":[
				4
			],
			"name":"3f0d8c1a7c7c45138e5b99b56838fcb9.fbx",
			"rotation":[
				0.70710688829422,
				0,
				0,
				0.7071066498756409
			]
		},
		{
			"children":[
				5
			],
			"name":"Sketchfab_model",
			"rotation":[
				-0.70710688829422,
				0,
				0,
				0.7071066498756409
			]
		}
	],
	"materials":[
		{
			"emissiveFactor":[
				1,
				1,
				1
			],
			"emissiveTexture":{
				"index":0
			},
			"name":"Material_50",
			"normalTexture":{
				"index":1
			},
			"pbrMetallicRoughness":{
				"baseColorFactor":[
					0.5931783318519592,
					0.5931783318519592,
					0.5931783318519592,
					1
				],
				"baseColorTexture":{
					"index":2
				},
				"metallicFactor":0,
				"metallicRoughnessTexture":{
					"index":3
				}
			}
		}
	],
	"meshes":[
		{
			"name":"Earth_Material #50_0",
			"primitives":[
				{
					"attributes":{
						"POSITION":0,
						"NORMAL":1,
						"TEXCOORD_0":2
					},
					"indices":3,
					"material":0
				}
			]
		}
	],
	"textures":[
		{
			"sampler":0,
			"source":0
		},
		{
			"sampler":0,
			"source":1
		},
		{
			"sampler":0,
			"source":2
		},
		{
			"sampler":0,
			"source":3
		}
	],
	"images":[
		{
			"mimeType":"image/jpeg",
			"name":"Material_50_emissive",
			"uri":"Material_50_emissive.jpg"
		},
		{
			"mimeType":"image/png",
			"name":"Material_50_normal",
			"uri":"Material_50_normal.png"
		},
		{
			"mimeType":"image/jpeg",
			"name":"Material_50_baseColor",
			"uri":"Material_50_baseColor.jpg"
		},
		{
			"mimeType":"image/png",
			"name":"Material_50_metallicRoughness",
			"uri":"Material_50_metallicRoughness.png"
		}
	],
	"accessors":[
		{
			"bufferView":0,
			"componentType":5126,
			"count":8383,
			"max":[
				5,
				5,
				5.048601150512695
			],
			"min":[
				-5,
				-5,
				-4.951396942138672
			],
			"type":"VEC3"
		},
		{
			"bufferView":1,
			"componentType":5126,
			"count":8383,
			"type":"VEC3"
		},
		{
			"bufferView":2,
			"componentType":5126,
			"count":8383,
			"type":"VEC2"
		},
		{
			"bufferView":3,
			"componentType":5123,
			"count":48384,
			"type":"SCALAR"
		}
	],
	"bufferViews":[
		{
			"buffer":0,
			"byteLength":100596,
			"byteOffset":0,
			"target":34962
		},
		{
			"buffer":0,
			"byteLength":100596,
			"byteOffset":100596,
			"target":34962
		},
		{
			"buffer":0,
			"byteLength":67064,
			"byteOffset":201192,
			"target":34962
		},
		{
			"buffer":0,
			"byteLength":96768,
			"byteOffset":268256,
			"target":34963
		}
	],
	"samplers":[
		{
			"magFilter":9729,
			"minFilter":9987
		}
	],
	"buffers":[
		{
			"byteLength":365024,
			"uri":"scene.bin"
		}
	]
}
